ffmpeg started on 2016-12-12 at 04:55:14
Report written to "Output/theora/results/ffmpeg/old_town_cross_2160p504500k.log"
Command line:
Tools/ffmpeg/ffmpeg -benchmark -y -i Input/y4m/old_town_cross_2160p50.y4m -c:v libtheora -b:v 4500k -an Output/theora/encoded/old_town_cross_2160p504500k.mkv
ffmpeg version N-82227-gdb23fde Copyright (c) 2000-2016 the FFmpeg developers
  built with gcc 5.4.0 (Ubuntu 5.4.0-6ubuntu1~16.04.2) 20160609
  configuration: --prefix=/home/jaroslav/ffmpeg_build --pkg-config-flags=--static --extra-cflags=-I/home/jaroslav/ffmpeg_build/include --extra-ldflags=-L/home/jaroslav/ffmpeg_build/lib --bindir=/home/jaroslav/bin --enable-gpl --enable-libass --enable-libfdk-aac --enable-libfreetype --enable-libmp3lame --enable-libopus --enable-libtheora --enable-libvorbis --enable-libvpx --enable-libx264 --enable-libx265 --enable-nvenc --enable-libmfx --enable-libxvid --enable-libgsm --enable-libopencore-amrnb --enable-version3 --enable-nonfree
  libavutil      55. 35.100 / 55. 35.100
  libavcodec     57. 66.101 / 57. 66.101
  libavformat    57. 57.100 / 57. 57.100
  libavdevice    57.  2.100 / 57.  2.100
  libavfilter     6. 66.100 /  6. 66.100
  libswscale      4.  3.100 /  4.  3.100
  libswresample   2.  4.100 /  2.  4.100
  libpostproc    54.  2.100 / 54.  2.100
Input #0, yuv4mpegpipe, from 'Input/y4m/old_town_cross_2160p50.y4m':
  Duration: 00:00:10.00, start: 0.000000, bitrate: 4976642 kb/s
    Stream #0:0: Video: rawvideo (I420 / 0x30323449), yuv420p(progressive), 3840x2160, SAR 1:1 DAR 16:9, 50 fps, 50 tbr, 50 tbn, 50 tbc
Output #0, matroska, to 'Output/theora/encoded/old_town_cross_2160p504500k.mkv':
  Metadata:
    encoder         : Lavf57.57.100
    Stream #0:0: Video: theora (libtheora) (theo / 0x6F656874), yuv420p, 3840x2160 [SAR 1:1 DAR 16:9], q=2-31, 4500 kb/s, 50 fps, 1k tbn, 50 tbc
    Metadata:
      encoder         : Lavc57.66.101 libtheora
Stream mapping:
  Stream #0:0 -> #0:0 (rawvideo (native) -> theora (libtheora))
Press [q] to stop, [?] for help
frame=    3 fps=0.0 q=-0.0 size=       4kB time=00:00:00.04 bitrate= 779.5kbits/s speed=0.0566x    frame=    5 fps=3.7 q=-0.0 size=       4kB time=00:00:00.08 bitrate= 394.6kbits/s speed=0.0595x    frame=    7 fps=3.5 q=-0.0 size=       4kB time=00:00:00.12 bitrate= 264.1kbits/s speed=0.0606x    frame=    9 fps=3.4 q=-0.0 size=       4kB time=00:00:00.16 bitrate= 198.5kbits/s speed=0.061x    frame=   11 fps=3.4 q=-0.0 size=       4kB time=00:00:00.20 bitrate= 159.0kbits/s speed=0.0613x    frame=   13 fps=3.3 q=-0.0 size=     189kB time=00:00:00.24 bitrate=6426.1kbits/s speed=0.0614x    frame=   16 fps=3.4 q=-0.0 size=     189kB time=00:00:00.30 bitrate=5145.2kbits/s speed=0.0637x    frame=   18 fps=3.4 q=-0.0 size=     189kB time=00:00:00.34 bitrate=4541.6kbits/s speed=0.0635x    frame=   20 fps=3.3 q=-0.0 size=     189kB time=00:00:00.38 bitrate=4064.8kbits/s speed=0.0633x    frame=   22 fps=3.3 q=-0.0 size=     189kB time=00:00:00.42 bitrate=3678.6kbits/s speed=0.0632x    frame=   24 fps=3.3 q=-0.0 size=     189kB time=00:00:00.46 bitrate=3359.4kbits/s speed=0.063x    frame=   27 fps=3.3 q=-0.0 size=     403kB time=00:00:00.52 bitrate=6344.0kbits/s speed=0.064x    frame=   29 fps=3.3 q=-0.0 size=     403kB time=00:00:00.56 bitrate=5891.6kbits/s speed=0.0639x    frame=   31 fps=3.3 q=-0.0 size=     403kB time=00:00:00.60 bitrate=5499.5kbits/s speed=0.0638x    frame=   33 fps=3.3 q=-0.0 size=     403kB time=00:00:00.64 bitrate=5156.3kbits/s speed=0.0636x    frame=   35 fps=3.3 q=-0.0 size=     403kB time=00:00:00.68 bitrate=4853.5kbits/s speed=0.0634x    frame=   37 fps=3.2 q=-0.0 size=     634kB time=00:00:00.72 bitrate=7207.0kbits/s speed=0.0633x    frame=   40 fps=3.3 q=-0.0 size=     634kB time=00:00:00.78 bitrate=6653.4kbits/s speed=0.064x    frame=   42 fps=3.3 q=-0.0 size=     634kB time=00:00:00.82 bitrate=6329.2kbits/s speed=0.0639x    frame=   44 fps=3.3 q=-0.0 size=     634kB time=00:00:00.86 bitrate=6035.2kbits/s speed=0.0638x    frame=   46 fps=3.3 q=-0.0 size=     634kB time=00:00:00.90 bitrate=5767.2kbits/s speed=0.0637x    frame=   48 fps=3.2 q=-0.0 size=     634kB time=00:00:00.94 bitrate=5522.1kbits/s speed=0.0637x    frame=   51 fps=3.3 q=-0.0 size=     837kB time=00:00:01.00 bitrate=6850.6kbits/s speed=0.0642x    frame=   53 fps=3.3 q=-0.0 size=     837kB time=00:00:01.04 bitrate=6587.4kbits/s speed=0.0641x    frame=   55 fps=3.3 q=-0.0 size=     837kB time=00:00:01.08 bitrate=6343.6kbits/s speed=0.064x    frame=   57 fps=3.3 q=-0.0 size=     837kB time=00:00:01.12 bitrate=6117.3kbits/s speed=0.064x    frame=   59 fps=3.2 q=-0.0 size=     837kB time=00:00:01.16 bitrate=5906.5kbits/s speed=0.0639x    frame=   61 fps=3.2 q=-0.0 size=    1041kB time=00:00:01.20 bitrate=7101.7kbits/s speed=0.0638x    frame=   64 fps=3.3 q=-0.0 size=    1041kB time=00:00:01.26 bitrate=6763.8kbits/s speed=0.0643x    frame=   66 fps=3.3 q=-0.0 size=    1041kB time=00:00:01.30 bitrate=6555.8kbits/s speed=0.0642x    frame=   68 fps=3.3 q=-0.0 size=    1041kB time=00:00:01.34 bitrate=6360.3kbits/s speed=0.0641x    frame=   70 fps=3.2 q=-0.0 size=    1041kB time=00:00:01.38 bitrate=6176.0kbits/s speed=0.064x    frame=   72 fps=3.2 q=-0.0 size=    1041kB time=00:00:01.42 bitrate=6002.2kbits/s speed=0.0637x    frame=   74 fps=3.2 q=-0.0 size=    1254kB time=00:00:01.46 bitrate=7029.6kbits/s speed=0.064x    frame=   76 fps=3.2 q=-0.0 size=    1254kB time=00:00:01.50 bitrate=6842.2kbits/s speed=0.064x    frame=   78 fps=3.2 q=-0.0 size=    1254kB time=00:00:01.54 bitrate=6664.6kbits/s speed=0.064x    frame=   80 fps=3.2 q=-0.0 size=    1254kB time=00:00:01.58 bitrate=6496.0kbits/s speed=0.0639x    frame=   82 fps=3.2 q=-0.0 size=    1254kB time=00:00:01.62 bitrate=6335.7kbits/s speed=0.0639x    frame=   84 fps=3.2 q=-0.0 size=    1254kB time=00:00:01.66 bitrate=6183.1kbits/s speed=0.0638x    frame=   87 fps=3.2 q=-0.0 size=    1445kB time=00:00:01.72 bitrate=6876.5kbits/s speed=0.0642x    frame=   89 fps=3.2 q=-0.0 size=    1445kB time=00:00:01.76 bitrate=6720.3kbits/s speed=0.0642x    frame=   91 fps=3.2 q=-0.0 size=    1445kB time=00:00:01.80 bitrate=6571.0kbits/s speed=0.0641x    frame=   93 fps=3.2 q=-0.0 size=    1445kB time=00:00:01.84 bitrate=6428.2kbits/s speed=0.0641x    frame=   95 fps=3.2 q=-0.0 size=    1445kB time=00:00:01.88 bitrate=6291.5kbits/s speed=0.064x    frame=   97 fps=3.2 q=-0.0 size=    1586kB time=00:00:01.92 bitrate=6762.5kbits/s speed=0.064x    frame=  100 fps=3.2 q=-0.0 size=    1586kB time=00:00:01.98 bitrate=6557.7kbits/s speed=0.0643x    frame=  102 fps=3.2 q=-0.0 size=    1586kB time=00:00:02.02 bitrate=6427.9kbits/s speed=0.0642x    frame=  104 fps=3.2 q=-0.0 size=    1586kB time=00:00:02.06 bitrate=6303.2kbits/s speed=0.0642x    frame=  106 fps=3.2 q=-0.0 size=    1586kB time=00:00:02.10 bitrate=6183.2kbits/s speed=0.0641x    frame=  108 fps=3.2 q=-0.0 size=    1586kB time=00:00:02.14 bitrate=6067.7kbits/s speed=0.0641x    frame=  111 fps=3.2 q=-0.0 size=    1715kB time=00:00:02.20 bitrate=6381.5kbits/s speed=0.0643x    frame=  113 fps=3.2 q=-0.0 size=    1715kB time=00:00:02.24 bitrate=6267.6kbits/s speed=0.0643x    frame=  115 fps=3.2 q=-0.0 size=    1715kB time=00:00:02.28 bitrate=6157.7kbits/s speed=0.0643x    frame=  117 fps=3.2 q=-0.0 size=    1715kB time=00:00:02.32 bitrate=6051.5kbits/s speed=0.0643x    frame=  119 fps=3.2 q=-0.0 size=    1715kB time=00:00:02.36 bitrate=5949.0kbits/s speed=0.0642x    frame=  121 fps=3.2 q=-0.0 size=    1847kB time=00:00:02.40 bitrate=6301.9kbits/s speed=0.0642x    frame=  124 fps=3.2 q=-0.0 size=    1847kB time=00:00:02.46 bitrate=6148.2kbits/s speed=0.0644x    frame=  126 fps=3.2 q=-0.0 size=    1847kB time=00:00:02.50 bitrate=6049.9kbits/s speed=0.0644x    frame=  128 fps=3.2 q=-0.0 size=    1847kB time=00:00:02.54 bitrate=5954.7kbits/s speed=0.0644x    frame=  130 fps=3.2 q=-0.0 size=    1847kB time=00:00:02.58 bitrate=5862.4kbits/s speed=0.0644x    frame=  132 fps=3.2 q=-0.0 size=    1847kB time=00:00:02.62 bitrate=5772.9kbits/s speed=0.0643x    frame=  135 fps=3.2 q=-0.0 size=    1979kB time=00:00:02.68 bitrate=6046.4kbits/s speed=0.0645x    frame=  137 fps=3.2 q=-0.0 size=    1979kB time=00:00:02.72 bitrate=5957.5kbits/s speed=0.0645x    frame=  139 fps=3.2 q=-0.0 size=    1979kB time=00:00:02.76 bitrate=5871.2kbits/s speed=0.0645x    frame=  141 fps=3.2 q=-0.0 size=    1979kB time=00:00:02.80 bitrate=5787.4kbits/s speed=0.0644x    frame=  143 fps=3.2 q=-0.0 size=    1979kB time=00:00:02.84 bitrate=5705.9kbits/s speed=0.0644x    frame=  145 fps=3.2 q=-0.0 size=    2099kB time=00:00:02.88 bitrate=5967.1kbits/s speed=0.0643x    frame=  148 fps=3.2 q=-0.0 size=    2099kB time=00:00:02.94 bitrate=5845.4kbits/s speed=0.0645x    frame=  150 fps=3.2 q=-0.0 size=    2099kB time=00:00:02.98 bitrate=5767.0kbits/s speed=0.0645x    frame=  152 fps=3.2 q=-0.0 size=    2099kB time=00:00:03.02 bitrate=5690.6kbits/s speed=0.0645x    frame=  154 fps=3.2 q=-0.0 size=    2099kB time=00:00:03.06 bitrate=5616.3kbits/s speed=0.0644x    frame=  156 fps=3.2 q=-0.0 size=    2099kB time=00:00:03.10 bitrate=5543.8kbits/s speed=0.0644x    frame=  159 fps=3.2 q=-0.0 size=    2233kB time=00:00:03.16 bitrate=5787.1kbits/s speed=0.0646x    frame=  161 fps=3.2 q=-0.0 size=    2233kB time=00:00:03.20 bitrate=5714.8kbits/s speed=0.0646x    frame=  163 fps=3.2 q=-0.0 size=    2233kB time=00:00:03.24 bitrate=5644.3kbits/s speed=0.0645x    frame=  165 fps=3.2 q=-0.0 size=    2233kB time=00:00:03.28 bitrate=5575.4kbits/s speed=0.0645x    frame=  167 fps=3.2 q=-0.0 size=    2233kB time=00:00:03.32 bitrate=5508.3kbits/s speed=0.0645x    frame=  169 fps=3.2 q=-0.0 size=    2356kB time=00:00:03.36 bitrate=5742.9kbits/s speed=0.0644x    frame=  172 fps=3.2 q=-0.0 size=    2356kB time=00:00:03.42 bitrate=5642.1kbits/s speed=0.0646x    frame=  174 fps=3.2 q=-0.0 size=    2356kB time=00:00:03.46 bitrate=5576.9kbits/s speed=0.0646x    frame=  176 fps=3.2 q=-0.0 size=    2356kB time=00:00:03.50 bitrate=5513.2kbits/s speed=0.0646x    frame=  178 fps=3.2 q=-0.0 size=    2356kB time=00:00:03.54 bitrate=5450.9kbits/s speed=0.0646x    frame=  180 fps=3.2 q=-0.0 size=    2356kB time=00:00:03.58 bitrate=5390.1kbits/s speed=0.0645x    frame=  183 fps=3.3 q=-0.0 size=    2506kB time=00:00:03.64 bitrate=5638.6kbits/s speed=0.0647x    frame=  185 fps=3.2 q=-0.0 size=    2506kB time=00:00:03.68 bitrate=5577.3kbits/s speed=0.0647x    frame=  187 fps=3.2 q=-0.0 size=    2506kB time=00:00:03.72 bitrate=5517.3kbits/s speed=0.0646x    frame=  189 fps=3.2 q=-0.0 size=    2506kB time=00:00:03.76 bitrate=5458.7kbits/s speed=0.0646x    frame=  191 fps=3.2 q=-0.0 size=    2506kB time=00:00:03.80 bitrate=5401.2kbits/s speed=0.0646x    frame=  193 fps=3.2 q=-0.0 size=    2638kB time=00:00:03.84 bitrate=5625.9kbits/s speed=0.0646x    frame=  196 fps=3.3 q=-0.0 size=    2638kB time=00:00:03.90 bitrate=5539.4kbits/s speed=0.0647x    frame=  198 fps=3.3 q=-0.0 size=    2638kB time=00:00:03.94 bitrate=5483.1kbits/s speed=0.0647x    frame=  200 fps=3.2 q=-0.0 size=    2638kB time=00:00:03.98 bitrate=5428.0kbits/s speed=0.0647x    frame=  202 fps=3.2 q=-0.0 size=    2638kB time=00:00:04.02 bitrate=5374.1kbits/s speed=0.0646x    frame=  204 fps=3.2 q=-0.0 size=    2638kB time=00:00:04.06 bitrate=5321.1kbits/s speed=0.0646x    frame=  207 fps=3.3 q=-0.0 size=    2761kB time=00:00:04.12 bitrate=5488.5kbits/s speed=0.0647x    frame=  209 fps=3.3 q=-0.0 size=    2761kB time=00:00:04.16 bitrate=5435.8kbits/s speed=0.0647x    frame=  211 fps=3.2 q=-0.0 size=    2761kB time=00:00:04.20 bitrate=5384.0kbits/s speed=0.0647x    frame=  213 fps=3.2 q=-0.0 size=    2761kB time=00:00:04.24 bitrate=5333.2kbits/s speed=0.0647x    frame=  215 fps=3.2 q=-0.0 size=    2761kB time=00:00:04.28 bitrate=5283.4kbits/s speed=0.0646x    frame=  217 fps=3.2 q=-0.0 size=    2901kB time=00:00:04.32 bitrate=5500.0kbits/s speed=0.0646x    frame=  220 fps=3.3 q=-0.0 size=    2901kB time=00:00:04.38 bitrate=5424.7kbits/s speed=0.0647x    frame=  222 fps=3.2 q=-0.0 size=    2901kB time=00:00:04.42 bitrate=5375.6kbits/s speed=0.0647x    frame=  224 fps=3.2 q=-0.0 size=    2901kB time=00:00:04.46 bitrate=5327.4kbits/s speed=0.0647x    frame=  226 fps=3.2 q=-0.0 size=    2901kB time=00:00:04.50 bitrate=5280.1kbits/s speed=0.0647x    frame=  228 fps=3.2 q=-0.0 size=    2901kB time=00:00:04.54 bitrate=5233.5kbits/s speed=0.0644x    frame=  231 fps=3.2 q=-0.0 size=    3025kB time=00:00:04.60 bitrate=5386.1kbits/s speed=0.0645x    frame=  233 fps=3.2 q=-0.0 size=    3025kB time=00:00:04.64 bitrate=5339.7kbits/s speed=0.0645x    frame=  235 fps=3.2 q=-0.0 size=    3025kB time=00:00:04.68 bitrate=5294.1kbits/s speed=0.0645x    frame=  237 fps=3.2 q=-0.0 size=    3025kB time=00:00:04.72 bitrate=5249.2kbits/s speed=0.0644x    frame=  239 fps=3.2 q=-0.0 size=    3025kB time=00:00:04.76 bitrate=5205.1kbits/s speed=0.0644x    frame=  241 fps=3.2 q=-0.0 size=    3169kB time=00:00:04.80 bitrate=5407.2kbits/s speed=0.0644x    frame=  244 fps=3.2 q=-0.0 size=    3169kB time=00:00:04.86 bitrate=5340.4kbits/s speed=0.0645x    frame=  246 fps=3.2 q=-0.0 size=    3169kB time=00:00:04.90 bitrate=5296.8kbits/s speed=0.0645x    frame=  248 fps=3.2 q=-0.0 size=    3169kB time=00:00:04.94 bitrate=5253.9kbits/s speed=0.0645x    frame=  250 fps=3.2 q=-0.0 size=    3169kB time=00:00:04.98 bitrate=5211.8kbits/s speed=0.0644x    frame=  252 fps=3.2 q=-0.0 size=    3169kB time=00:00:05.02 bitrate=5170.2kbits/s speed=0.0644x    frame=  254 fps=3.2 q=-0.0 size=    3300kB time=00:00:05.06 bitrate=5342.2kbits/s speed=0.0645x    frame=  256 fps=3.2 q=-0.0 size=    3300kB time=00:00:05.10 bitrate=5300.3kbits/s speed=0.0645x    frame=  258 fps=3.2 q=-0.0 size=    3300kB time=00:00:05.14 bitrate=5259.0kbits/s speed=0.0645x    frame=  260 fps=3.2 q=-0.0 size=    3300kB time=00:00:05.18 bitrate=5218.4kbits/s speed=0.0645x    frame=  262 fps=3.2 q=-0.0 size=    3300kB time=00:00:05.22 bitrate=5178.5kbits/s speed=0.0644x    frame=  264 fps=3.2 q=-0.0 size=    3300kB time=00:00:05.26 bitrate=5139.1kbits/s speed=0.0644x    frame=  267 fps=3.2 q=-0.0 size=    3420kB time=00:00:05.32 bitrate=5264.5kbits/s speed=0.0645x    frame=  269 fps=3.2 q=-0.0 size=    3420kB time=00:00:05.36 bitrate=5225.3kbits/s speed=0.0645x    frame=  271 fps=3.2 q=-0.0 size=    3420kB time=00:00:05.40 bitrate=5186.6kbits/s speed=0.0645x    frame=  273 fps=3.2 q=-0.0 size=    3420kB time=00:00:05.44 bitrate=5148.4kbits/s speed=0.0645x    frame=  275 fps=3.2 q=-0.0 size=    3420kB time=00:00:05.48 bitrate=5110.9kbits/s speed=0.0644x    frame=  277 fps=3.2 q=-0.0 size=    3554kB time=00:00:05.52 bitrate=5273.1kbits/s speed=0.0644x    frame=  280 fps=3.2 q=-0.0 size=    3554kB time=00:00:05.58 bitrate=5216.4kbits/s speed=0.0645x    frame=  282 fps=3.2 q=-0.0 size=    3554kB time=00:00:05.62 bitrate=5179.3kbits/s speed=0.0645x    frame=  284 fps=3.2 q=-0.0 size=    3554kB time=00:00:05.66 bitrate=5142.7kbits/s speed=0.0645x    frame=  286 fps=3.2 q=-0.0 size=    3554kB time=00:00:05.70 bitrate=5106.6kbits/s speed=0.0644x    frame=  288 fps=3.2 q=-0.0 size=    3554kB time=00:00:05.74 bitrate=5071.1kbits/s speed=0.0644x    frame=  290 fps=3.2 q=-0.0 size=    3698kB time=00:00:05.78 bitrate=5239.8kbits/s speed=0.0645x    frame=  292 fps=3.2 q=-0.0 size=    3698kB time=00:00:05.82 bitrate=5203.8kbits/s speed=0.0645x    frame=  294 fps=3.2 q=-0.0 size=    3698kB time=00:00:05.86 bitrate=5168.3kbits/s speed=0.0645x    frame=  296 fps=3.2 q=-0.0 size=    3698kB time=00:00:05.90 bitrate=5133.3kbits/s speed=0.0645x    frame=  298 fps=3.2 q=-0.0 size=    3698kB time=00:00:05.94 bitrate=5098.7kbits/s speed=0.0644x    frame=  300 fps=3.2 q=-0.0 size=    3698kB time=00:00:05.98 bitrate=5064.6kbits/s speed=0.0642x    frame=  302 fps=3.2 q=-0.0 size=    3828kB time=00:00:06.02 bitrate=5208.3kbits/s speed=0.0643x    frame=  304 fps=3.2 q=-0.0 size=    3828kB time=00:00:06.06 bitrate=5173.9kbits/s speed=0.0643x    frame=  306 fps=3.2 q=-0.0 size=    3828kB time=00:00:06.10 bitrate=5140.0kbits/s speed=0.0643x    frame=  308 fps=3.2 q=-0.0 size=    3828kB time=00:00:06.14 bitrate=5106.5kbits/s speed=0.0642x    frame=  310 fps=3.2 q=-0.0 size=    3828kB time=00:00:06.18 bitrate=5073.5kbits/s speed=0.0642x    frame=  312 fps=3.2 q=-0.0 size=    3828kB time=00:00:06.22 bitrate=5040.9kbits/s speed=0.0642x    frame=  314 fps=3.2 q=-0.0 size=    3950kB time=00:00:06.26 bitrate=5168.4kbits/s speed=0.0643x    frame=  316 fps=3.2 q=-0.0 size=    3950kB time=00:00:06.30 bitrate=5135.6kbits/s speed=0.0643x    frame=  318 fps=3.2 q=-0.0 size=    3950kB time=00:00:06.34 bitrate=5103.2kbits/s speed=0.0643x    frame=  320 fps=3.2 q=-0.0 size=    3950kB time=00:00:06.38 bitrate=5071.2kbits/s speed=0.0643x    frame=  322 fps=3.2 q=-0.0 size=    3950kB time=00:00:06.42 bitrate=5039.6kbits/s speed=0.0642x    frame=  324 fps=3.2 q=-0.0 size=    3950kB time=00:00:06.46 bitrate=5008.4kbits/s speed=0.0642x    frame=  326 fps=3.2 q=-0.0 size=    4090kB time=00:00:06.50 bitrate=5153.7kbits/s speed=0.0643x    frame=  328 fps=3.2 q=-0.0 size=    4090kB time=00:00:06.54 bitrate=5122.2kbits/s speed=0.0643x    frame=  330 fps=3.2 q=-0.0 size=    4090kB time=00:00:06.58 bitrate=5091.1kbits/s speed=0.0643x    frame=  332 fps=3.2 q=-0.0 size=    4090kB time=00:00:06.62 bitrate=5060.3kbits/s speed=0.0643x    frame=  334 fps=3.2 q=-0.0 size=    4090kB time=00:00:06.66 bitrate=5029.9kbits/s speed=0.0642x    frame=  336 fps=3.2 q=-0.0 size=    4090kB time=00:00:06.70 bitrate=4999.9kbits/s speed=0.0642x    frame=  338 fps=3.2 q=-0.0 size=    4222kB time=00:00:06.74 bitrate=5131.1kbits/s speed=0.0643x    frame=  340 fps=3.2 q=-0.0 size=    4222kB time=00:00:06.78 bitrate=5100.8kbits/s speed=0.0643x    frame=  342 fps=3.2 q=-0.0 size=    4222kB time=00:00:06.82 bitrate=5070.9kbits/s speed=0.0643x    frame=  344 fps=3.2 q=-0.0 size=    4222kB time=00:00:06.86 bitrate=5041.3kbits/s speed=0.0642x    frame=  346 fps=3.2 q=-0.0 size=    4222kB time=00:00:06.90 bitrate=5012.1kbits/s speed=0.0642x    frame=  348 fps=3.2 q=-0.0 size=    4222kB time=00:00:06.94 bitrate=4983.2kbits/s speed=0.0642x    frame=  350 fps=3.2 q=-0.0 size=    4333kB time=00:00:06.98 bitrate=5084.5kbits/s speed=0.064x    frame=  352 fps=3.2 q=-0.0 size=    4333kB time=00:00:07.02 bitrate=5055.6kbits/s speed=0.064x    frame=  354 fps=3.2 q=-0.0 size=    4333kB time=00:00:07.06 bitrate=5026.9kbits/s speed=0.064x    frame=  356 fps=3.2 q=-0.0 size=    4333kB time=00:00:07.10 bitrate=4998.6kbits/s speed=0.064x    frame=  358 fps=3.2 q=-0.0 size=    4333kB time=00:00:07.14 bitrate=4970.6kbits/s speed=0.064x    frame=  360 fps=3.2 q=-0.0 size=    4333kB time=00:00:07.18 bitrate=4942.9kbits/s speed=0.064x    frame=  362 fps=3.2 q=-0.0 size=    4467kB time=00:00:07.22 bitrate=5067.7kbits/s speed=0.064x    frame=  364 fps=3.2 q=-0.0 size=    4467kB time=00:00:07.26 bitrate=5039.7kbits/s speed=0.064x    frame=  366 fps=3.2 q=-0.0 size=    4467kB time=00:00:07.30 bitrate=5012.1kbits/s speed=0.064x    frame=  368 fps=3.2 q=-0.0 size=    4467kB time=00:00:07.34 bitrate=4984.8kbits/s speed=0.064x    frame=  370 fps=3.2 q=-0.0 size=    4467kB time=00:00:07.38 bitrate=4957.8kbits/s speed=0.064x    frame=  372 fps=3.2 q=-0.0 size=    4467kB time=00:00:07.42 bitrate=4931.1kbits/s speed=0.064x    frame=  374 fps=3.2 q=-0.0 size=    4607kB time=00:00:07.46 bitrate=5058.8kbits/s speed=0.064x    frame=  376 fps=3.2 q=-0.0 size=    4607kB time=00:00:07.50 bitrate=5031.9kbits/s speed=0.064x    frame=  378 fps=3.2 q=-0.0 size=    4607kB time=00:00:07.54 bitrate=5005.2kbits/s speed=0.064x    frame=  380 fps=3.2 q=-0.0 size=    4607kB time=00:00:07.58 bitrate=4978.8kbits/s speed=0.064x    frame=  382 fps=3.2 q=-0.0 size=    4607kB time=00:00:07.62 bitrate=4952.6kbits/s speed=0.064x    frame=  384 fps=3.2 q=-0.0 size=    4607kB time=00:00:07.66 bitrate=4926.8kbits/s speed=0.064x    frame=  386 fps=3.2 q=-0.0 size=    4729kB time=00:00:07.70 bitrate=5030.8kbits/s speed=0.0641x    frame=  388 fps=3.2 q=-0.0 size=    4729kB time=00:00:07.74 bitrate=5004.8kbits/s speed=0.0641x    frame=  390 fps=3.2 q=-0.0 size=    4729kB time=00:00:07.78 bitrate=4979.1kbits/s speed=0.064x    frame=  392 fps=3.2 q=-0.0 size=    4729kB time=00:00:07.82 bitrate=4953.6kbits/s speed=0.064x    frame=  394 fps=3.2 q=-0.0 size=    4729kB time=00:00:07.86 bitrate=4928.4kbits/s speed=0.064x    frame=  396 fps=3.2 q=-0.0 size=    4729kB time=00:00:07.90 bitrate=4903.5kbits/s speed=0.064x    frame=  398 fps=3.2 q=-0.0 size=    4872kB time=00:00:07.94 bitrate=5026.4kbits/s speed=0.0641x    frame=  399 fps=3.2 q=-0.0 size=    4872kB time=00:00:07.96 bitrate=5013.8kbits/s speed=0.0639x    frame=  401 fps=3.2 q=-0.0 size=    4872kB time=00:00:08.00 bitrate=4988.7kbits/s speed=0.0639x    frame=  403 fps=3.2 q=-0.0 size=    4872kB time=00:00:08.04 bitrate=4963.9kbits/s speed=0.0639x    frame=  405 fps=3.2 q=-0.0 size=    4872kB time=00:00:08.08 bitrate=4939.3kbits/s speed=0.0638x    frame=  407 fps=3.2 q=-0.0 size=    4872kB time=00:00:08.12 bitrate=4915.0kbits/s speed=0.0638x    frame=  409 fps=3.2 q=-0.0 size=    5003kB time=00:00:08.16 bitrate=5022.5kbits/s speed=0.0638x    frame=  412 fps=3.2 q=-0.0 size=    5003kB time=00:00:08.22 bitrate=4985.8kbits/s speed=0.0638x    frame=  414 fps=3.2 q=-0.0 size=    5003kB time=00:00:08.26 bitrate=4961.7kbits/s speed=0.0638x    frame=  416 fps=3.2 q=-0.0 size=    5003kB time=00:00:08.30 bitrate=4937.8kbits/s speed=0.0638x    frame=  418 fps=3.2 q=-0.0 size=    5003kB time=00:00:08.34 bitrate=4914.1kbits/s speed=0.0638x    frame=  420 fps=3.2 q=-0.0 size=    5003kB time=00:00:08.38 bitrate=4890.7kbits/s speed=0.0638x    frame=  422 fps=3.2 q=-0.0 size=    5144kB time=00:00:08.42 bitrate=5004.3kbits/s speed=0.0638x    frame=  424 fps=3.2 q=-0.0 size=    5144kB time=00:00:08.46 bitrate=4980.6kbits/s speed=0.0638x    frame=  426 fps=3.2 q=-0.0 size=    5144kB time=00:00:08.50 bitrate=4957.2kbits/s speed=0.0638x    frame=  427 fps=3.2 q=-0.0 size=    5144kB time=00:00:08.52 bitrate=4945.6kbits/s speed=0.0636x    frame=  429 fps=3.2 q=-0.0 size=    5144kB time=00:00:08.56 bitrate=4922.5kbits/s speed=0.0636x    frame=  431 fps=3.2 q=-0.0 size=    5144kB time=00:00:08.60 bitrate=4899.6kbits/s speed=0.0636x    frame=  433 fps=3.2 q=-0.0 size=    5254kB time=00:00:08.64 bitrate=4980.8kbits/s speed=0.0636x    frame=  436 fps=3.2 q=-0.0 size=    5254kB time=00:00:08.70 bitrate=4946.4kbits/s speed=0.0637x    frame=  438 fps=3.2 q=-0.0 size=    5254kB time=00:00:08.74 bitrate=4923.8kbits/s speed=0.0637x    frame=  440 fps=3.2 q=-0.0 size=    5254kB time=00:00:08.78 bitrate=4901.4kbits/s speed=0.0636x    frame=  442 fps=3.2 q=-0.0 size=    5254kB time=00:00:08.82 bitrate=4879.1kbits/s speed=0.0636x    frame=  444 fps=3.2 q=-0.0 size=    5254kB time=00:00:08.86 bitrate=4857.1kbits/s speed=0.0634x    frame=  445 fps=3.2 q=-0.0 size=    5399kB time=00:00:08.88 bitrate=4980.2kbits/s speed=0.0632x    frame=  448 fps=3.2 q=-0.0 size=    5399kB time=00:00:08.94 bitrate=4946.7kbits/s speed=0.0633x    frame=  450 fps=3.2 q=-0.0 size=    5399kB time=00:00:08.98 bitrate=4924.7kbits/s speed=0.0633x    frame=  452 fps=3.2 q=-0.0 size=    5399kB time=00:00:09.02 bitrate=4902.9kbits/s speed=0.0633x    frame=  454 fps=3.2 q=-0.0 size=    5399kB time=00:00:09.06 bitrate=4881.2kbits/s speed=0.0633x    frame=  456 fps=3.2 q=-0.0 size=    5399kB time=00:00:09.10 bitrate=4859.8kbits/s speed=0.0631x    frame=  458 fps=3.2 q=-0.0 size=    5542kB time=00:00:09.14 bitrate=4967.1kbits/s speed=0.0632x    frame=  459 fps=3.2 q=-0.0 size=    5542kB time=00:00:09.16 bitrate=4956.2kbits/s speed=0.063x    frame=  461 fps=3.2 q=-0.0 size=    5542kB time=00:00:09.20 bitrate=4934.7kbits/s speed=0.063x    frame=  463 fps=3.2 q=-0.0 size=    5542kB time=00:00:09.24 bitrate=4913.3kbits/s speed=0.063x    frame=  464 fps=3.1 q=-0.0 size=    5542kB time=00:00:09.26 bitrate=4902.7kbits/s speed=0.0628x    frame=  466 fps=3.1 q=-0.0 size=    5542kB time=00:00:09.30 bitrate=4881.6kbits/s speed=0.0626x    frame=  468 fps=3.1 q=-0.0 size=    5542kB time=00:00:09.34 bitrate=4860.7kbits/s speed=0.0626x    frame=  470 fps=3.1 q=-0.0 size=    5661kB time=00:00:09.38 bitrate=4943.9kbits/s speed=0.0627x    frame=  472 fps=3.1 q=-0.0 size=    5661kB time=00:00:09.42 bitrate=4922.9kbits/s speed=0.0627x    frame=  474 fps=3.1 q=-0.0 size=    5661kB time=00:00:09.46 bitrate=4902.1kbits/s speed=0.0625x    frame=  476 fps=3.1 q=-0.0 size=    5661kB time=00:00:09.50 bitrate=4881.5kbits/s speed=0.0625x    frame=  478 fps=3.1 q=-0.0 size=    5661kB time=00:00:09.54 bitrate=4861.0kbits/s speed=0.0625x    frame=  480 fps=3.1 q=-0.0 size=    5661kB time=00:00:09.58 bitrate=4840.7kbits/s speed=0.0625x    frame=  482 fps=3.1 q=-0.0 size=    5807kB time=00:00:09.62 bitrate=4944.6kbits/s speed=0.0625x    frame=  484 fps=3.1 q=-0.0 size=    5807kB time=00:00:09.66 bitrate=4924.1kbits/s speed=0.0625x    frame=  486 fps=3.1 q=-0.0 size=    5807kB time=00:00:09.70 bitrate=4903.8kbits/s speed=0.0625x    frame=  488 fps=3.1 q=-0.0 size=    5807kB time=00:00:09.74 bitrate=4883.7kbits/s speed=0.0625x    frame=  490 fps=3.1 q=-0.0 size=    5807kB time=00:00:09.78 bitrate=4863.7kbits/s speed=0.0623x    frame=  492 fps=3.1 q=-0.0 size=    5807kB time=00:00:09.82 bitrate=4843.9kbits/s speed=0.0623x    frame=  494 fps=3.1 q=-0.0 size=    5924kB time=00:00:09.86 bitrate=4921.7kbits/s speed=0.0624x    frame=  496 fps=3.1 q=-0.0 size=    5924kB time=00:00:09.90 bitrate=4901.8kbits/s speed=0.0624x    frame=  498 fps=3.1 q=-0.0 size=    5924kB time=00:00:09.94 bitrate=4882.1kbits/s speed=0.0624x    frame=  500 fps=3.1 q=-0.0 size=    5924kB time=00:00:09.98 bitrate=4862.5kbits/s speed=0.0624x    frame=  500 fps=3.1 q=-0.0 Lsize=    5997kB time=00:00:09.98 bitrate=4922.1kbits/s speed=0.0622x    
video:5988kB audio:0kB subtitle:0kB other streams:0kB global headers:3kB muxing overhead: 0.147034%
bench: utime=143.132s
bench: maxrss=179812kB
